<?xml version="1.0" standalone="no"?>
<!DOCTYPE svg PUBLIC "-//W3C//DTD SVG 20010904//EN"
 "http://www.w3.org/TR/2001/REC-SVG-20010904/DTD/svg10.dtd">
<svg version="1.0" xmlns="http://www.w3.org/2000/svg"
 width="186.000000pt" height="186.000000pt" viewBox="0 0 186.000000 186.000000"
 preserveAspectRatio="xMidYMid meet">
<metadata>
Created by potrace 1.11, written by Peter Selinger 2001-2013
</metadata>
<g transform="translate(0.000000,186.000000) scale(0.100000,-0.100000)"
fill="#000000" stroke="none">
<path d="M874 1835 c-64 -23 -176 -75 -184 -84 -9 -12 -60 -41 -60 -36 0 4 -7
-1 -16 -9 -8 -9 -20 -13 -26 -10 -7 4 -8 2 -4 -4 7 -12 -67 -55 -78 -45 -3 4
-6 1 -6 -5 0 -10 -38 -28 -52 -24 -5 1 -8 -3 -8 -9 0 -5 -4 -8 -8 -5 -5 3 -18
-4 -30 -14 -12 -11 -26 -20 -31 -20 -14 0 -39 -39 -44 -70 -3 -14 -12 -46 -21
-71 -8 -25 -18 -63 -21 -85 -4 -21 -13 -66 -22 -99 -24 -94 -23 -102 19 -245
22 -74 40 -155 41 -180 1 -45 -10 -126 -18 -140 -11 -17 9 -71 36 -100 16 -16
29 -33 29 -36 0 -3 37 -43 81 -87 45 -45 88 -98 97 -117 9 -22 16 -72 18 -135
1 -55 3 -103 3 -107 2 -12 55 -58 74 -64 9 -3 28 3 43 15 l25 20 36 -25 c43
-29 44 -29 76 -4 33 26 49 25 75 -5 27 -31 42 -31 72 0 29 31 53 32 92 4 29
-21 29 -21 51 -1 33 29 49 31 85 10 32 -20 32 -20 67 2 l35 22 -1 122 c-1 98
2 129 16 156 10 19 72 86 138 151 l121 117 -13 63 c-24 117 -24 123 12 250 52
182 57 220 40 293 -8 33 -16 68 -18 76 -2 8 -10 34 -19 58 -8 23 -13 42 -9 42
3 0 0 6 -6 13 -6 8 -8 17 -4 20 3 4 2 7 -4 7 -5 0 -18 29 -28 65 -11 41 -22
65 -31 65 -8 0 -17 7 -20 15 -4 8 -10 12 -15 9 -5 -3 -9 -1 -9 4 0 9 -50 37
-62 34 -5 -1 -8 2 -8 7 0 19 -181 116 -194 103 -3 -3 -6 -1 -6 5 0 11 -72 46
-95 46 -8 0 -12 3 -10 7 2 4 -15 13 -38 20 -23 8 -46 17 -52 20 -25 17 -56 16
-111 -5z"/>
</g>
</svg>
