<?xml version="1.0" encoding="utf-8"?>
<!-- Generator: Adobe Illustrator 21.1.0, SVG Export Plug-In . SVG Version: 6.00 Build 0)  -->
<svg version="1.1"
	 id="svg22096" inkscape:version="0.92.0 r" sodipodi:docname="light.svg" xmlns:cc="http://creativecommons.org/ns#" xmlns:dc="http://purl.org/dc/elements/1.1/" xmlns:inkscape="http://www.inkscape.org/namespaces/inkscape" xmlns:rdf="http://www.w3.org/1999/02/22-rdf-syntax-ns#" xmlns:sodipodi="http://sodipodi.sourceforge.net/DTD/sodipodi-0.dtd" xmlns:svg="http://www.w3.org/2000/svg"
	 xmlns="http://www.w3.org/2000/svg" xmlns:xlink="http://www.w3.org/1999/xlink" x="0px" y="0px" viewBox="0 0 746.7 746.7"
	 style="enable-background:new 0 0 746.7 746.7;" xml:space="preserve">
<style type="text/css">
	.st0{clip-path:url(#SVGID_2_);}
	.st1{fill:#ECA610;}
	.st2{fill:#FFFFFF;}
	.st3{clip-path:url(#SVGID_4_);}
	.st4{fill:#E34E61;}
</style>
<sodipodi:namedview  bordercolor="#666666" borderopacity="1" fit-margin-bottom="0" fit-margin-left="0" fit-margin-right="0" fit-margin-top="0" gridtolerance="10" guidetolerance="10" id="namedview15296" inkscape:current-layer="svg22096" inkscape:cx="373.33293" inkscape:cy="373.33333" inkscape:pageopacity="0" inkscape:pageshadow="2" inkscape:window-height="480" inkscape:window-maximized="0" inkscape:window-width="834" inkscape:window-x="0" inkscape:window-y="0" inkscape:zoom="0.295" objecttolerance="10" pagecolor="#ffffff" showgrid="false">
	</sodipodi:namedview>
<g id="g22104" transform="matrix(1.3333333,0,0,-1.3333333,-26.667066,773.33331)">
	<g id="g22106">
		<g>
			<defs>
				<rect id="SVGID_1_" x="-100" y="-100" width="800" height="800"/>
			</defs>
			<clipPath id="SVGID_2_">
				<use xlink:href="#SVGID_1_"  style="overflow:visible;"/>
			</clipPath>
			<g id="g22108" class="st0">
				<g id="g22114" transform="translate(300.0003,28)">
					<path id="path22116" inkscape:connector-curvature="0" class="st1" d="M0,0c-72.7,0-141,28.3-192.3,79.7S-272,199.3-272,272
						s28.3,141,79.7,192.3S-72.7,544,0,544c72.7,0,141-28.3,192.3-79.7S272,344.7,272,272s-28.3-141-79.7-192.3S72.7,0,0,0"/>
				</g>
				<g id="g22118" transform="translate(300.0003,580)">
					<path id="path22120" inkscape:connector-curvature="0" class="st2" d="M0,0c-37.8,0-74.5-7.4-109-22
						c-33.3-14.1-63.3-34.3-89-60c-25.7-25.7-45.9-55.7-60-89c-14.6-34.5-22-71.2-22-109s7.4-74.5,22-109c14.1-33.3,34.3-63.3,60-89
						c25.7-25.7,55.7-45.9,89-60c34.5-14.6,71.2-22,109-22c37.8,0,74.5,7.4,109,22c33.3,14.1,63.3,34.3,89,60
						c25.7,25.7,45.9,55.7,60,89c14.6,34.5,22,71.2,22,109s-7.4,74.5-22,109c-14.1,33.3-34.3,63.3-60,89c-25.7,25.7-55.7,45.9-89,60
						C74.5-7.4,37.8,0,0,0 M0-16c145.8,0,264-118.2,264-264c0-145.8-118.2-264-264-264c-145.8,0-264,118.2-264,264
						C-264-134.2-145.8-16,0-16"/>
				</g>
				<g id="g22122" transform="translate(420.6917,263.3271)">
					<path id="path22124" inkscape:connector-curvature="0" class="st2" d="M0,0l-9,27.3l23.5,9.4L-9,46.1l9,27.3l62-36.7L0,0z
						 M8.5-92.5l-69.8,17.9l12.9,25.7l23.3-10l-10,23.3l25.7,12.9L8.5-92.5z M-120.6-146l-36.7,62l27.2,9l9.4-23.5l9.4,23.5l27.3-9
						L-120.6-146z M-249.8-92.5l17.8,69.7l25.6-12.9l-10-23.3l23.3,10l12.9-25.7L-249.8-92.5z M-303.3,36.7l61.9,36.6l9-27.2
						l-23.5-9.4l23.5-9.4l-9-27.2L-303.3,36.7z M-249.8,165.8l69.7-17.9l-12.9-25.7l-23.3,10l10-23.3l-25.6-12.9L-249.8,165.8z
						 M-120.6,219.3l36.6-61.9l-27.3-9l-9.4,23.5l-9.4-23.5l-27.2,9L-120.6,219.3z M-54.2,64.2l14.1,32.9l26.9-15.9L-21,50.9
						L-54.2,64.2z M-54.2,9.1L-21,22.5l7.8-30.3l-26.9-15.9L-54.2,9.1z M-93.2-29.8l32.9-14.1l-15.9-26.9l-30.3,7.8L-93.2-29.8z
						 M-148.2-29.8l13.3-33.2l-30.3-7.8l-15.9,26.9L-148.2-29.8z M-187.1,9.1l-14.1-32.9l-26.9,15.9l7.8,30.3L-187.1,9.1z
						 M-187.1,64.2l-33.2-13.3l-7.8,30.3l26.9,15.9L-187.1,64.2z M-148.2,103.1l-32.9,14.1l15.9,26.9l30.3-7.8L-148.2,103.1z
						 M-93.2,103.1l-13.3,33.2l30.3,7.8l15.9-26.9L-93.2,103.1z M8.5,165.8L-9.4,96.1L-35.1,109l10,23.3l-23.3-10l-12.9,25.6
						L8.5,165.8z M98.3,42L5.1,88.8L38,187.7c0.7,2.2,0.2,4.5-1.5,6.1c-1.6,1.6-4,2.2-6.1,1.5l-98.9-32.8l-46.8,93.2
						c-1,2-3.1,3.3-5.4,3.3c-2.3,0-4.3-1.3-5.4-3.3l-46.8-93.2l-98.9,32.8c-2.2,0.7-4.5,0.2-6.1-1.5c-1.6-1.6-2.2-4-1.5-6.1
						l32.8-98.9L-339.7,42c-2-1-3.3-3.1-3.3-5.4c0-2.3,1.3-4.3,3.3-5.4l93.2-46.8l-32.8-98.9c-0.7-2.2-0.2-4.5,1.5-6.1
						c1.6-1.6,4-2.2,6.1-1.5l98.9,32.8l46.8-93.2c1-2,3.1-3.3,5.4-3.3c2.3,0,4.3,1.3,5.4,3.3l46.8,93.2L30.4-122
						c0.6-0.2,1.3-0.3,1.9-0.3c1.6,0,3.1,0.6,4.2,1.8c1.6,1.6,2.2,4,1.5,6.1L5.1-15.4l93.2,46.8c2,1,3.3,3.1,3.3,5.4
						C101.6,38.9,100.3,41,98.3,42"/>
				</g>
			</g>
		</g>
	</g>
</g>
<g id="g23288" transform="matrix(1.3333333,0,0,-1.3333333,-26.666666,773.33331)">
	<g id="g23290">
		<g>
			<defs>
				<rect id="SVGID_3_" x="-100" y="-100" width="800" height="800"/>
			</defs>
			<clipPath id="SVGID_4_">
				<use xlink:href="#SVGID_3_"  style="overflow:visible;"/>
			</clipPath>
			<g id="g23292" class="st3">
				<g id="g23298" transform="translate(300,554)">
					<path id="path23300" inkscape:connector-curvature="0" class="st2" d="M0,0c-140.1,0-254-113.9-254-254S-140.1-508,0-508
						s254,113.9,254,254S140.1,0,0,0 M0-529.6c-37.2,0-73.3,7.3-107.3,21.7c-32.8,13.9-62.3,33.7-87.6,59
						c-25.3,25.3-45.2,54.8-59,87.6c-14.4,34-21.7,70.1-21.7,107.3s7.3,73.3,21.7,107.3c13.9,32.8,33.7,62.3,59,87.6
						c25.3,25.3,54.8,45.2,87.6,59C-73.3,14.3-37.2,21.6,0,21.6s73.3-7.3,107.3-21.7c32.8-13.9,62.3-33.7,87.6-59
						c25.3-25.3,45.2-54.8,59-87.6c14.4-34,21.7-70.1,21.7-107.3s-7.3-73.3-21.7-107.3c-13.9-32.8-33.7-62.3-59-87.6
						c-25.3-25.3-54.8-45.2-87.6-59C73.3-522.3,37.2-529.6,0-529.6"/>
				</g>
				<g id="g23302" transform="translate(470.4717,90.2558)">
					<path id="path23304" inkscape:connector-curvature="0" class="st4" d="M0,0c-2.6,0-4.2,1.1-5.1,2l-165.3,165.3L-335.8,2
						c-0.9-0.9-2.5-2-5.1-2c-9.4,0-33.5,18.1-39,31.3c-2.9,7-0.2,11.2,1.7,13.1l165.3,165.3l-165.3,165.3c-2.1,2.1-5,6.9-1.5,15.5
						c5.4,13.1,23.8,30.1,35.9,30.1c3.2,0,5.9-1.1,8-3.2l165.3-165.3L-5.1,417.5c2.1,2.1,4.8,3.2,8,3.2c12.1,0,30.5-16.9,35.9-30.1
						c3.6-8.6,0.6-13.4-1.5-15.5L-128,209.7L37.3,44.4c1.9-1.9,4.6-6.1,1.7-13.1C33.5,18.1,9.4,0,0,0L0,0z"/>
				</g>
				<g id="g23306" transform="translate(88.71,461.792)">
					<path id="path23308" inkscape:connector-curvature="0" class="st2" d="M0,0l161.8-161.8L0-323.6c-2.2-2.2,47.3-51.7,49.5-49.5
						l161.8,161.8l161.8-161.8c2.2-2.2,51.7,47.3,49.5,49.5L260.8-161.8L422.6,0c2.4,2.4-46.5,52.5-49.5,49.5L211.3-112.3L49.5,49.5
						C46.5,52.5-2.4,2.4,0,0 M384.6,44.1c13.1,0,39.5-28.4,30.9-37L246.6-161.8l168.9-168.9c9-9-24.8-35.9-33.7-35.9
						c-0.7,0-1.3,0.2-1.6,0.5L211.3-197.1L42.4-366c-0.4-0.4-0.9-0.5-1.6-0.5c-8.9,0-42.8,26.8-33.7,35.9l168.9,168.9L7.1,7.1
						c-8.6,8.6,17.8,37,30.9,37c1.8,0,3.3-0.5,4.5-1.7l168.9-168.9L380.2,42.4C381.3,43.6,382.8,44.1,384.6,44.1"/>
				</g>
				<g id="g23310" transform="translate(300,580)">
					<path id="path23312" inkscape:connector-curvature="0" class="st4" d="M0,0c-37.8,0-74.5-7.4-109-22
						c-33.3-14.1-63.3-34.3-89-60c-25.7-25.7-45.9-55.7-60-89c-14.6-34.5-22-71.2-22-109s7.4-74.5,22-109c14.1-33.3,34.3-63.3,60-89
						c25.7-25.7,55.7-45.9,89-60c34.5-14.6,71.2-22,109-22s74.5,7.4,109,22c33.3,14.1,63.3,34.3,89,60c25.7,25.7,45.9,55.7,60,89
						c14.6,34.5,22,71.2,22,109s-7.4,74.5-22,109c-14.1,33.3-34.3,63.3-60,89c-25.7,25.7-55.7,45.9-89,60C74.5-7.4,37.8,0,0,0 M0-16
						c145.8,0,264-118.2,264-264c0-145.8-118.2-264-264-264s-264,118.2-264,264C-264-134.2-145.8-16,0-16"/>
				</g>
			</g>
		</g>
	</g>
</g>
</svg>
