<?xml version="1.0" encoding="utf-8"?>
<!-- Generator: Adobe Illustrator 21.1.0, SVG Export Plug-In . SVG Version: 6.00 Build 0)  -->
<svg version="1.1"
	 id="svg19720" inkscape:version="0.92.0 r" sodipodi:docname="air.svg" xmlns:cc="http://creativecommons.org/ns#" xmlns:dc="http://purl.org/dc/elements/1.1/" xmlns:inkscape="http://www.inkscape.org/namespaces/inkscape" xmlns:rdf="http://www.w3.org/1999/02/22-rdf-syntax-ns#" xmlns:sodipodi="http://sodipodi.sourceforge.net/DTD/sodipodi-0.dtd" xmlns:svg="http://www.w3.org/2000/svg"
	 xmlns="http://www.w3.org/2000/svg" xmlns:xlink="http://www.w3.org/1999/xlink" x="0px" y="0px" viewBox="0 0 746.7 746.7"
	 style="enable-background:new 0 0 746.7 746.7;" xml:space="preserve">
<style type="text/css">
	.st0{clip-path:url(#SVGID_2_);}
	.st1{fill:#98B0B5;}
	.st2{fill:#FFFFFF;}
	.st3{clip-path:url(#SVGID_4_);}
	.st4{fill:#E34E61;}
</style>
<sodipodi:namedview  bordercolor="#666666" borderopacity="1" fit-margin-bottom="0" fit-margin-left="0" fit-margin-right="0" fit-margin-top="0" gridtolerance="10" guidetolerance="10" id="namedview4633" inkscape:current-layer="svg19720" inkscape:cx="373.33333" inkscape:cy="373.33333" inkscape:pageopacity="0" inkscape:pageshadow="2" inkscape:window-height="1061" inkscape:window-maximized="0" inkscape:window-width="1918" inkscape:window-x="0" inkscape:window-y="17" inkscape:zoom="0.295" objecttolerance="10" pagecolor="#ffffff" showgrid="false">
	</sodipodi:namedview>
<g id="g19728" transform="matrix(1.3333333,0,0,-1.3333333,-26.666666,773.33331)">
	<g id="g19730">
		<g>
			<defs>
				<rect id="SVGID_1_" x="-100" y="-100" width="800" height="800"/>
			</defs>
			<clipPath id="SVGID_2_">
				<use xlink:href="#SVGID_1_"  style="overflow:visible;"/>
			</clipPath>
			<g id="g19732" class="st0">
				<g id="g19738" transform="translate(300,28)">
					<path id="path19740" inkscape:connector-curvature="0" class="st1" d="M0,0c-72.7,0-141,28.3-192.3,79.7S-272,199.3-272,272
						c0,72.7,28.3,141,79.7,192.3S-72.7,544,0,544c72.7,0,141-28.3,192.3-79.7S272,344.7,272,272c0-72.7-28.3-141-79.7-192.3
						S72.7,0,0,0"/>
				</g>
				<g id="g19742" transform="translate(300,580)">
					<path id="path19744" inkscape:connector-curvature="0" class="st2" d="M0,0c-37.8,0-74.5-7.4-109-22
						c-33.3-14.1-63.3-34.3-89-60c-25.7-25.7-45.9-55.7-60-89c-14.6-34.5-22-71.2-22-109s7.4-74.5,22-109c14.1-33.3,34.3-63.3,60-89
						c25.7-25.7,55.7-45.9,89-60c34.5-14.6,71.2-22,109-22s74.5,7.4,109,22c33.3,14.1,63.3,34.3,89,60c25.7,25.7,45.9,55.7,60,89
						c14.6,34.5,22,71.2,22,109s-7.4,74.5-22,109c-14.1,33.3-34.3,63.3-60,89c-25.7,25.7-55.7,45.9-89,60C74.5-7.4,37.8,0,0,0 M0-16
						c145.8,0,264-118.2,264-264S145.8-544,0-544s-264,118.2-264,264S-145.8-16,0-16"/>
				</g>
				<g id="g19746" transform="translate(78.6426,272.7793)">
					<path id="path19748" inkscape:connector-curvature="0" class="st2" d="M0,0c-1.4,0.3-1.3,2.3,0.1,2.5
						c12.5,1.7,42.6,2.8,81.7-15.7c52-24.5,136-79.2,185.7-76.3c42,2.5,62.5,18.3,60.3,37.8C326-36.4,309-26.4,296-31.4
						s-18.8-16.8-17.8-27.8c-11,8.5-7,25-3.5,29.5s22.7,30.7,55.5,8c27.5-19,15.9-56,0-70c-10.5-9.3-42-32.5-101.5-17.5
						S105.1-39.9,71.2-23.7C40.1-8.8,26.7-5.6,0,0"/>
				</g>
				<g id="g19750" transform="translate(168.0537,279.374)">
					<path id="path19752" inkscape:connector-curvature="0" class="st2" d="M0,0c-1,0.5-0.4,2,0.7,1.7c22.2-6.8,78.8-19.6,119.6-9
						c59.7,15.5,70.5,51,130,79.8c38,18.4,87.5,5.2,101-31.8c13.5-37-21.7-62.5-49.5-61c-23,1.2-38.5,14.4-41.5,25
						c-3.3,11.8,1.3,27.1,15,31.5c-4-18,5.8-37.7,26-36.5c20,1.2,37.7,26.2,19,45c-18.7,18.8-42,15.2-56,6.5
						c-14.9-9.2-50-44-80-58.5c-28.8-13.9-71-29.1-114.6-17.5C32.6-14.9,21.2-11.6,0,0"/>
				</g>
				<g id="g19754" transform="translate(111.6816,313.1714)">
					<path id="path19756" inkscape:connector-curvature="0" class="st2" d="M0,0c-1.3,0.5-0.9,2.4,0.5,2.3
						c17.1-0.7,65,0.1,90.2,28.1c31,34.5,23.9,58,51.5,83c19.2,17.4,63.3,23,94.3-3.5C271,80.4,252.6,22.8,218.4,5.1
						c-29-15-65.4-10.2-73.7,13.3c-9.2,26.2,9.8,49.3,29,49c20.3-0.3,17.5-20.5,17.5-20.5s-6,10.5-14.2,9.2
						c-10.5-1.6-19.7-14.7-14.3-27.8c6.8-16.3,35.8-23.4,56.7,1.3c21.5,25.5,16.8,60.2-18.7,72.7c-32.8,11.6-52-12.6-69.5-45
						C117.5,31.9,102-0.6,54.7-3.3C20.1-5.3,6.7-2.6,0,0"/>
				</g>
			</g>
		</g>
	</g>
</g>
<g id="g23288" transform="matrix(1.3333333,0,0,-1.3333333,-26.666666,773.33331)">
	<g id="g23290">
		<g>
			<defs>
				<rect id="SVGID_3_" x="-100" y="-100" width="800" height="800"/>
			</defs>
			<clipPath id="SVGID_4_">
				<use xlink:href="#SVGID_3_"  style="overflow:visible;"/>
			</clipPath>
			<g id="g23292" class="st3">
				<g id="g23298" transform="translate(300,554)">
					<path id="path23300" inkscape:connector-curvature="0" class="st2" d="M0,0c-140.1,0-254-113.9-254-254S-140.1-508,0-508
						s254,113.9,254,254S140.1,0,0,0 M0-529.6c-37.2,0-73.3,7.3-107.3,21.7c-32.8,13.9-62.3,33.7-87.6,59
						c-25.3,25.3-45.2,54.8-59,87.6c-14.4,34-21.7,70.1-21.7,107.3s7.3,73.3,21.7,107.3c13.9,32.8,33.7,62.3,59,87.6
						c25.3,25.3,54.8,45.2,87.6,59C-73.3,14.3-37.2,21.6,0,21.6s73.3-7.3,107.3-21.7c32.8-13.9,62.3-33.7,87.6-59
						c25.3-25.3,45.2-54.8,59-87.6c14.4-34,21.7-70.1,21.7-107.3s-7.3-73.3-21.7-107.3c-13.9-32.8-33.7-62.3-59-87.6
						c-25.3-25.3-54.8-45.2-87.6-59C73.3-522.3,37.2-529.6,0-529.6"/>
				</g>
				<g id="g23302" transform="translate(470.4717,90.2558)">
					<path id="path23304" inkscape:connector-curvature="0" class="st4" d="M0,0c-2.6,0-4.2,1.1-5.1,2l-165.3,165.3L-335.8,2
						c-0.9-0.9-2.5-2-5.1-2c-9.4,0-33.5,18.1-39,31.3c-2.9,7-0.2,11.2,1.7,13.1l165.3,165.3l-165.3,165.3c-2.1,2.1-5,6.9-1.5,15.5
						c5.4,13.1,23.8,30.1,35.9,30.1c3.2,0,5.9-1.1,8-3.2l165.3-165.3L-5.1,417.5c2.1,2.1,4.8,3.2,8,3.2c12.1,0,30.5-16.9,35.9-30.1
						c3.6-8.6,0.6-13.4-1.5-15.5L-128,209.7L37.3,44.4c1.9-1.9,4.6-6.1,1.7-13.1C33.5,18.1,9.4,0,0,0L0,0z"/>
				</g>
				<g id="g23306" transform="translate(88.71,461.792)">
					<path id="path23308" inkscape:connector-curvature="0" class="st2" d="M0,0l161.8-161.8L0-323.6c-2.2-2.2,47.3-51.7,49.5-49.5
						l161.8,161.8l161.8-161.8c2.2-2.2,51.7,47.3,49.5,49.5L260.8-161.8L422.6,0c2.4,2.4-46.5,52.5-49.5,49.5L211.3-112.3L49.5,49.5
						C46.5,52.5-2.4,2.4,0,0 M384.6,44.1c13.1,0,39.5-28.4,30.9-37L246.6-161.8l168.9-168.9c9-9-24.8-35.9-33.7-35.9
						c-0.7,0-1.3,0.2-1.6,0.5L211.3-197.1L42.4-366c-0.4-0.4-0.9-0.5-1.6-0.5c-8.9,0-42.8,26.8-33.7,35.9l168.9,168.9L7.1,7.1
						c-8.6,8.6,17.8,37,30.9,37c1.8,0,3.3-0.5,4.5-1.7l168.9-168.9L380.2,42.4C381.3,43.6,382.8,44.1,384.6,44.1"/>
				</g>
				<g id="g23310" transform="translate(300,580)">
					<path id="path23312" inkscape:connector-curvature="0" class="st4" d="M0,0c-37.8,0-74.5-7.4-109-22
						c-33.3-14.1-63.3-34.3-89-60c-25.7-25.7-45.9-55.7-60-89c-14.6-34.5-22-71.2-22-109s7.4-74.5,22-109c14.1-33.3,34.3-63.3,60-89
						c25.7-25.7,55.7-45.9,89-60c34.5-14.6,71.2-22,109-22s74.5,7.4,109,22c33.3,14.1,63.3,34.3,89,60c25.7,25.7,45.9,55.7,60,89
						c14.6,34.5,22,71.2,22,109s-7.4,74.5-22,109c-14.1,33.3-34.3,63.3-60,89c-25.7,25.7-55.7,45.9-89,60C74.5-7.4,37.8,0,0,0 M0-16
						c145.8,0,264-118.2,264-264c0-145.8-118.2-264-264-264s-264,118.2-264,264C-264-134.2-145.8-16,0-16"/>
				</g>
			</g>
		</g>
	</g>
</g>
</svg>
