<?xml version="1.0" encoding="utf-8"?>
<!-- Generator: Adobe Illustrator 21.1.0, SVG Export Plug-In . SVG Version: 6.00 Build 0)  -->
<svg version="1.1"
	 id="svg20320" inkscape:version="0.92.0 r" sodipodi:docname="ice.svg" xmlns:cc="http://creativecommons.org/ns#" xmlns:dc="http://purl.org/dc/elements/1.1/" xmlns:inkscape="http://www.inkscape.org/namespaces/inkscape" xmlns:rdf="http://www.w3.org/1999/02/22-rdf-syntax-ns#" xmlns:sodipodi="http://sodipodi.sourceforge.net/DTD/sodipodi-0.dtd" xmlns:svg="http://www.w3.org/2000/svg"
	 xmlns="http://www.w3.org/2000/svg" xmlns:xlink="http://www.w3.org/1999/xlink" x="0px" y="0px" viewBox="0 0 746.7 746.7"
	 style="enable-background:new 0 0 746.7 746.7;" xml:space="preserve">
<style type="text/css">
	.st0{clip-path:url(#SVGID_2_);}
	.st1{fill:#56C8EF;}
	.st2{fill:#FFFFFF;}
	.st3{clip-path:url(#SVGID_4_);}
	.st4{fill:#E34E61;}
</style>
<sodipodi:namedview  bordercolor="#666666" borderopacity="1" fit-margin-bottom="0" fit-margin-left="0" fit-margin-right="0" fit-margin-top="0" gridtolerance="10" guidetolerance="10" id="namedview12749" inkscape:current-layer="svg20320" inkscape:cx="373.33293" inkscape:cy="373.33333" inkscape:pageopacity="0" inkscape:pageshadow="2" inkscape:window-height="480" inkscape:window-maximized="0" inkscape:window-width="834" inkscape:window-x="0" inkscape:window-y="0" inkscape:zoom="0.295" objecttolerance="10" pagecolor="#ffffff" showgrid="false">
	</sodipodi:namedview>
<g id="g20328" transform="matrix(1.3333333,0,0,-1.3333333,-26.667066,773.33331)">
	<g id="g20330">
		<g>
			<defs>
				<rect id="SVGID_1_" x="-100" y="-100" width="800" height="800"/>
			</defs>
			<clipPath id="SVGID_2_">
				<use xlink:href="#SVGID_1_"  style="overflow:visible;"/>
			</clipPath>
			<g id="g20332" class="st0">
				<g id="g20338" transform="translate(300.0003,28)">
					<path id="path20340" inkscape:connector-curvature="0" class="st1" d="M0,0c-72.7,0-141,28.3-192.3,79.7S-272,199.3-272,272
						c0,72.7,28.3,141,79.7,192.3S-72.7,544,0,544c72.7,0,141-28.3,192.3-79.7S272,344.7,272,272c0-72.7-28.3-141-79.7-192.3
						S72.7,0,0,0"/>
				</g>
				<g id="g20342" transform="translate(300.0003,580)">
					<path id="path20344" inkscape:connector-curvature="0" class="st2" d="M0,0c-37.8,0-74.5-7.4-109-22
						c-33.3-14.1-63.3-34.3-89-60c-25.7-25.7-45.9-55.7-60-89c-14.6-34.5-22-71.2-22-109s7.4-74.5,22-109c14.1-33.3,34.3-63.3,60-89
						c25.7-25.7,55.7-45.9,89-60c34.5-14.6,71.2-22,109-22c37.8,0,74.5,7.4,109,22c33.3,14.1,63.3,34.3,89,60
						c25.7,25.7,45.9,55.7,60,89c14.6,34.5,22,71.2,22,109s-7.4,74.5-22,109c-14.1,33.3-34.3,63.3-60,89c-25.7,25.7-55.7,45.9-89,60
						C74.5-7.4,37.8,0,0,0 M0-16c145.8,0,264-118.2,264-264S145.8-544,0-544c-145.8,0-264,118.2-264,264S-145.8-16,0-16"/>
				</g>
				<g id="g20346" transform="translate(300.0003,256.3574)">
					<path id="path20348" inkscape:connector-curvature="0" class="st2" d="M0,0l-37.7,21.8v43.6L0,87.1l37.7-21.8V21.8L0,0z
						 M182.7-2.6l-38.1-28l-30.6,18.5l49.5,34.7c3.2,2.2,3.9,6.6,1.7,9.8c-2.2,3.2-6.6,3.9-9.8,1.7L100.9-4.1L51.7,25.6v35.9
						l49.1,29.8l54.6-38.2c1.2-0.9,2.6-1.3,4-1.3c2.2,0,4.4,1,5.7,3c2.2,3.2,1.4,7.5-1.7,9.7L114,99.2l30.6,18.5l38.1-28
						c1.2-0.9,2.7-1.4,4.1-1.4c2.2,0,4.3,1,5.6,2.9c2.3,3.1,1.6,7.5-1.5,9.8l-33.5,24.6l29.3,17.8c3.3,1.9,4.5,6.2,2.6,9.6
						c-1.9,3.3-6.2,4.5-9.6,2.6L149.8,139l-4.5,41.2c-0.4,3.8-3.9,6.6-7.7,6.2c-3.8-0.4-6.6-3.9-6.2-7.7l5.2-46.9l-31.3-17.2
						l-5.3,60.1c-0.3,3.9-3.7,6.7-7.6,6.4c-3.9-0.3-6.7-3.7-6.4-7.6l5.8-66.2L41.2,79.5L10.5,97.2L9.2,155l60.3,28.1
						c3.5,1.6,5,5.8,3.4,9.3c-1.6,3.5-5.8,5-9.3,3.4L8.9,170.3L8.1,206l43.3,19c3.5,1.6,5.1,5.7,3.6,9.2c-1.6,3.5-5.7,5.1-9.2,3.6
						l-38-16.7L7,255.4c0,3.9-3.1,7-7,7s-7-3.1-7-7l-0.7-34.3l-38,16.7c-3.5,1.6-7.7-0.1-9.2-3.6c-1.6-3.5,0.1-7.7,3.6-9.2l43.3-19
						l-0.8-35.7l-54.7,25.5c-3.5,1.6-7.7,0.1-9.3-3.4c-1.6-3.5-0.1-7.7,3.4-9.3L-9.2,155l-1.3-57.7l-30.7-17.7l-50.6,27.7l5.8,66.2
						c0.3,3.9-2.5,7.2-6.4,7.6c-3.9,0.3-7.2-2.5-7.6-6.4l-5.3-60.1l-31.3,17.2l5.2,46.9c0.4,3.8-2.4,7.3-6.2,7.7
						c-3.8,0.4-7.3-2.3-7.7-6.2l-4.5-41.2l-30.1,16.5c-3.3,1.9-7.6,0.8-9.6-2.6c-1.9-3.3-0.8-7.6,2.6-9.6l29.3-17.8l-33.5-24.6
						c-3.1-2.3-3.8-6.7-1.5-9.8c1.4-1.9,3.5-2.9,5.6-2.9c1.4,0,2.9,0.4,4.1,1.4l38.1,28l30.6-18.5l-49.5-34.7
						c-3.2-2.2-3.9-6.6-1.7-9.7c1.4-1.9,3.5-3,5.7-3c1.4,0,2.8,0.4,4,1.3l54.6,38.2l49.1-29.8V26L-101-4l-54.4,38.1
						c-3.2,2.2-7.5,1.4-9.7-1.7c-2.2-3.2-1.4-7.5,1.7-9.7l49.3-34.6l-30.5-18.6l-38.1,27.9c-3.1,2.3-7.5,1.6-9.8-1.5
						c-2.3-3.1-1.6-7.5,1.5-9.8l33.4-24.5l-29.3-17.8c-3.3-1.9-4.5-6.2-2.6-9.6c1.3-2.2,3.6-3.5,6.1-3.5c1.2,0,2.4,0.3,3.5,0.9
						l30.1,16.5l4.5-41.3c0.4-3.6,3.4-6.2,6.9-6.2c0.3,0,0.5,0,0.8,0c3.8,0.4,6.6,3.9,6.2,7.7l-5.2,47l31.3,17.2l5.3-60.2
						c0.3-3.6,3.4-6.4,7-6.4c0.2,0,0.4,0,0.6,0c3.9,0.3,6.7,3.7,6.4,7.6l-5.8,66.4l50.3,27.7l30.9-17.8l1.3-57.6l-60.2-28.1
						c-3.5-1.6-5-5.8-3.4-9.3c1.2-2.5,3.7-4,6.3-4c1,0,2,0.2,3,0.7L-8.9-83l0.8-35.7l-43.2-19c-3.5-1.6-5.1-5.7-3.6-9.2
						c1.2-2.6,3.7-4.2,6.4-4.2c0.9,0,1.9,0.2,2.8,0.6l37.9,16.7l0.8-34.3c0-3.9,3.1-7,7-7s7,3.1,7,7l0.7,34.3l38-16.7
						c0.9-0.4,1.9-0.6,2.8-0.6c2.7,0,5.3,1.6,6.4,4.2c1.6,3.5-0.1,7.7-3.6,9.2l-43.3,19l0.8,35.7l54.8-25.5c1-0.4,2-0.7,3-0.7
						c2.6,0,5.2,1.5,6.3,4c1.6,3.5,0.1,7.7-3.4,9.3L9.1-67.6l1.2,57.5L41.2,7.6l50.6-27.7l-5.8-66.2c-0.3-3.9,2.5-7.2,6.4-7.6
						c0.2,0,0.4,0,0.6,0c3.6,0,6.6,2.7,7,6.4l5.3,60.1l31.3-17.2l-5.2-46.9c-0.4-3.8,2.4-7.3,6.2-7.7c0.3,0,0.5,0,0.8,0
						c3.5,0,6.6,2.7,6.9,6.2l4.5,41.2l30.1-16.5c1.1-0.6,2.3-0.9,3.5-0.9c2.4,0,4.8,1.3,6.1,3.5c1.9,3.3,0.8,7.6-2.6,9.6l-29.3,17.8
						l33.5,24.6c3.1,2.3,3.8,6.7,1.5,9.8C190.2-1,185.8-0.3,182.7-2.6"/>
				</g>
			</g>
		</g>
	</g>
</g>
<g id="g23288" transform="matrix(1.3333333,0,0,-1.3333333,-26.666666,773.33331)">
	<g id="g23290">
		<g>
			<defs>
				<rect id="SVGID_3_" x="-100" y="-100" width="800" height="800"/>
			</defs>
			<clipPath id="SVGID_4_">
				<use xlink:href="#SVGID_3_"  style="overflow:visible;"/>
			</clipPath>
			<g id="g23292" class="st3">
				<g id="g23298" transform="translate(300,554)">
					<path id="path23300" inkscape:connector-curvature="0" class="st2" d="M0,0c-140.1,0-254-113.9-254-254S-140.1-508,0-508
						s254,113.9,254,254S140.1,0,0,0 M0-529.6c-37.2,0-73.3,7.3-107.3,21.7c-32.8,13.9-62.3,33.7-87.6,59
						c-25.3,25.3-45.2,54.8-59,87.6c-14.4,34-21.7,70.1-21.7,107.3s7.3,73.3,21.7,107.3c13.9,32.8,33.7,62.3,59,87.6
						c25.3,25.3,54.8,45.2,87.6,59C-73.3,14.3-37.2,21.6,0,21.6s73.3-7.3,107.3-21.7c32.8-13.9,62.3-33.7,87.6-59
						c25.3-25.3,45.2-54.8,59-87.6c14.4-34,21.7-70.1,21.7-107.3s-7.3-73.3-21.7-107.3c-13.9-32.8-33.7-62.3-59-87.6
						c-25.3-25.3-54.8-45.2-87.6-59C73.3-522.3,37.2-529.6,0-529.6"/>
				</g>
				<g id="g23302" transform="translate(470.4717,90.2558)">
					<path id="path23304" inkscape:connector-curvature="0" class="st4" d="M0,0c-2.6,0-4.2,1.1-5.1,2l-165.3,165.3L-335.8,2
						c-0.9-0.9-2.5-2-5.1-2c-9.4,0-33.5,18.1-39,31.3c-2.9,7-0.2,11.2,1.7,13.1l165.3,165.3l-165.3,165.3c-2.1,2.1-5,6.9-1.5,15.5
						c5.4,13.1,23.8,30.1,35.9,30.1c3.2,0,5.9-1.1,8-3.2l165.3-165.3L-5.1,417.5c2.1,2.1,4.8,3.2,8,3.2c12.1,0,30.5-16.9,35.9-30.1
						c3.6-8.6,0.6-13.4-1.5-15.5L-128,209.7L37.3,44.4c1.9-1.9,4.6-6.1,1.7-13.1C33.5,18.1,9.4,0,0,0L0,0z"/>
				</g>
				<g id="g23306" transform="translate(88.71,461.792)">
					<path id="path23308" inkscape:connector-curvature="0" class="st2" d="M0,0l161.8-161.8L0-323.6c-2.2-2.2,47.3-51.7,49.5-49.5
						l161.8,161.8l161.8-161.8c2.2-2.2,51.7,47.3,49.5,49.5L260.8-161.8L422.6,0c2.4,2.4-46.5,52.5-49.5,49.5L211.3-112.3L49.5,49.5
						C46.5,52.5-2.4,2.4,0,0 M384.6,44.1c13.1,0,39.5-28.4,30.9-37L246.6-161.8l168.9-168.9c9-9-24.8-35.9-33.7-35.9
						c-0.7,0-1.3,0.2-1.6,0.5L211.3-197.1L42.4-366c-0.4-0.4-0.9-0.5-1.6-0.5c-8.9,0-42.8,26.8-33.7,35.9l168.9,168.9L7.1,7.1
						c-8.6,8.6,17.8,37,30.9,37c1.8,0,3.3-0.5,4.5-1.7l168.9-168.9L380.2,42.4C381.3,43.6,382.8,44.1,384.6,44.1"/>
				</g>
				<g id="g23310" transform="translate(300,580)">
					<path id="path23312" inkscape:connector-curvature="0" class="st4" d="M0,0c-37.8,0-74.5-7.4-109-22
						c-33.3-14.1-63.3-34.3-89-60c-25.7-25.7-45.9-55.7-60-89c-14.6-34.5-22-71.2-22-109s7.4-74.5,22-109c14.1-33.3,34.3-63.3,60-89
						c25.7-25.7,55.7-45.9,89-60c34.5-14.6,71.2-22,109-22s74.5,7.4,109,22c33.3,14.1,63.3,34.3,89,60c25.7,25.7,45.9,55.7,60,89
						c14.6,34.5,22,71.2,22,109s-7.4,74.5-22,109c-14.1,33.3-34.3,63.3-60,89c-25.7,25.7-55.7,45.9-89,60C74.5-7.4,37.8,0,0,0 M0-16
						c145.8,0,264-118.2,264-264c0-145.8-118.2-264-264-264s-264,118.2-264,264C-264-134.2-145.8-16,0-16"/>
				</g>
			</g>
		</g>
	</g>
</g>
</svg>
